<?xml version="1.0" standalone="no"?>
<!DOCTYPE svg PUBLIC "-//W3C//DTD SVG 20010904//EN"
 "http://www.w3.org/TR/2001/REC-SVG-20010904/DTD/svg10.dtd">
<svg version="1.0" xmlns="http://www.w3.org/2000/svg"
 width="200.000000pt" height="200.000000pt" viewBox="0 0 200.000000 200.000000"
 preserveAspectRatio="xMidYMid meet">

<g transform="translate(0.000000,200.000000) scale(0.100000,-0.100000)"
fill="#000000" stroke="none">
<path d="M110 1783 c-60 -23 -110 -94 -110 -158 0 -48 32 -108 72 -137 l33
-23 895 0 895 0 34 24 c37 27 71 91 71 136 0 45 -34 109 -71 136 l-34 24 -885
2 c-487 1 -892 -1 -900 -4z"/>
<path d="M112 1157 c-43 -13 -99 -77 -108 -121 -16 -87 38 -174 121 -195 61
-15 1694 -15 1750 0 83 23 137 109 121 195 -9 47 -66 108 -114 122 -52 16
-1721 15 -1770 -1z"/>
<path d="M110 533 c-60 -23 -110 -94 -110 -158 0 -48 32 -108 72 -137 l33 -23
895 0 895 0 34 24 c37 27 71 91 71 136 0 45 -34 109 -71 136 l-34 24 -885 2
c-487 1 -892 -1 -900 -4z"/>
</g>
</svg>
